<svg preserveAspectRatio="none" width="100%" height="100%" overflow="visible" style="display: block;" viewBox="0 0 36 36" fill="none" xmlns="http://www.w3.org/2000/svg">
<g id="Frame 120">
<g id="Vector 2" filter="url(#filter0_d_342_693)">
<path d="M2.87234 31.514C2.87234 31.514 2.87234 9.41908 2.87234 7.89144C2.87234 6.55014 5.49674 2.56576 7.00109 2.04573C7.33607 1.92993 7.58027 2.25691 7.64087 2.60612C7.81891 3.63215 8.28594 5.84855 9.20179 7.38341C9.23708 7.44255 9.27735 7.49892 9.33135 7.54166C10.0317 8.09597 11.849 7.35987 12.5532 7.89144C13.5675 8.65707 13.5737 10.0773 14.7872 10.3438C16.2005 10.6542 17.0324 7.78673 18.1815 6.87535C18.3194 6.76593 18.4838 6.77708 18.5644 6.93364C18.9437 7.67033 19.7161 10.2061 19.7872 11.7768C19.7872 14.9077 19.4681 21.4576 19.4681 21.4576M19.4681 21.4576C19.4681 21.4576 16.0638 18.3725 14.1489 17.8406C12.234 17.3087 10.1064 19.7555 10.8511 21.4576C11.5957 23.1598 14.2249 25.6015 15.7447 25.5002C17.3404 25.3938 19.4681 21.4576 19.4681 21.4576ZM19.4681 21.4576C19.4681 21.4576 24.12 13.7124 25.8511 10.8193C26.7048 9.3925 27.5532 7.73422 28.1915 7.09592C28.8298 6.45762 29.5805 6.21092 30.4255 6.45762C31.2316 6.69296 31.7882 7.20318 32.3404 7.89144C32.7446 8.39513 32.8723 9.32996 32.8723 9.32996" stroke="var(--stroke-0, #6FBDD3)" stroke-width="1.48936" stroke-linecap="round" shape-rendering="crispEdges"/>
</g>
<g id="Ellipse 5" filter="url(#filter1_d_342_693)">
<circle cx="8.51065" cy="10.8194" r="1.38298" fill="var(--fill-0, #6FBDD3)"/>
</g>
<g id="Ellipse 6" filter="url(#filter2_d_342_693)">
<circle cx="14.0426" cy="13.5853" r="1.38298" fill="var(--fill-0, #6FBDD3)"/>
</g>
</g>
<defs>
<filter id="filter0_d_342_693" x="5.96046e-08" y="5.96046e-08" width="35.7448" height="35.2374" filterUnits="userSpaceOnUse" color-interpolation-filters="sRGB">
<feFlood flood-opacity="0" result="BackgroundImageFix"/>
<feColorMatrix in="SourceAlpha" type="matrix" values="0 0 0 0 0 0 0 0 0 0 0 0 0 0 0 0 0 0 127 0" result="hardAlpha"/>
<feOffset dy="0.851064"/>
<feGaussianBlur stdDeviation="1.06383"/>
<feComposite in2="hardAlpha" operator="out"/>
<feColorMatrix type="matrix" values="0 0 0 0 0 0 0 0 0 0 0 0 0 0 0 0 0 0 0.15 0"/>
<feBlend mode="normal" in2="BackgroundImageFix" result="effect1_dropShadow_342_693"/>
<feBlend mode="normal" in="SourceGraphic" in2="effect1_dropShadow_342_693" result="shape"/>
</filter>
<filter id="filter1_d_342_693" x="5.00001" y="8.15984" width="7.02128" height="7.02128" filterUnits="userSpaceOnUse" color-interpolation-filters="sRGB">
<feFlood flood-opacity="0" result="BackgroundImageFix"/>
<feColorMatrix in="SourceAlpha" type="matrix" values="0 0 0 0 0 0 0 0 0 0 0 0 0 0 0 0 0 0 127 0" result="hardAlpha"/>
<feOffset dy="0.851064"/>
<feGaussianBlur stdDeviation="1.06383"/>
<feComposite in2="hardAlpha" operator="out"/>
<feColorMatrix type="matrix" values="0 0 0 0 0 0 0 0 0 0 0 0 0 0 0 0 0 0 0.15 0"/>
<feBlend mode="normal" in2="BackgroundImageFix" result="effect1_dropShadow_342_693"/>
<feBlend mode="normal" in="SourceGraphic" in2="effect1_dropShadow_342_693" result="shape"/>
</filter>
<filter id="filter2_d_342_693" x="10.5319" y="10.9257" width="7.02128" height="7.02128" filterUnits="userSpaceOnUse" color-interpolation-filters="sRGB">
<feFlood flood-opacity="0" result="BackgroundImageFix"/>
<feColorMatrix in="SourceAlpha" type="matrix" values="0 0 0 0 0 0 0 0 0 0 0 0 0 0 0 0 0 0 127 0" result="hardAlpha"/>
<feOffset dy="0.851064"/>
<feGaussianBlur stdDeviation="1.06383"/>
<feComposite in2="hardAlpha" operator="out"/>
<feColorMatrix type="matrix" values="0 0 0 0 0 0 0 0 0 0 0 0 0 0 0 0 0 0 0.15 0"/>
<feBlend mode="normal" in2="BackgroundImageFix" result="effect1_dropShadow_342_693"/>
<feBlend mode="normal" in="SourceGraphic" in2="effect1_dropShadow_342_693" result="shape"/>
</filter>
</defs>
</svg>
