<svg preserveAspectRatio="none" width="100%" height="100%" overflow="visible" style="display: block;" viewBox="0 0 45 38" fill="none" xmlns="http://www.w3.org/2000/svg">
<g id="Frame 103">
<g id="Vector" filter="url(#filter0_d_341_529)">
<path d="M17.8419 26.8775C17.399 26.8775 16.6341 30.4306 15.3054 30.4306C15.1466 30.4306 14.8357 30.2361 14.7417 30.1389C9.93502 26.2375 5.34722 20.3846 5.34722 14.1653C5.34722 8.86568 9.46496 4.56944 14.5444 4.56944C17.655 4.56944 20.405 6.18059 22.0694 8.64663C23.7339 6.18059 26.4839 4.56944 29.5944 4.56944C34.6739 4.56944 38.7917 8.86568 38.7917 14.1653C38.7917 20.4194 34.1394 26.3349 29.3032 30.2361C29.2093 30.3333 28.9211 30.5278 28.8335 30.5278C27.7676 30.5278 27.3975 26.8775 26.9546 26.8775C26.5117 26.8775 25.0086 30.8194 24.5657 30.8194C24.1228 30.8194 23.237 29.9003 22.3513 29.9003C21.4655 29.9003 20.5797 30.8194 20.1369 30.8194C19.694 30.8194 18.2848 26.8775 17.8419 26.8775Z" fill="var(--fill-0, white)"/>
<path d="M14.7417 30.1389L15.0913 29.8011L15.0709 29.78L15.0481 29.7615L14.7417 30.1389ZM29.3032 30.2361L28.998 29.8578C28.9824 29.8703 28.9676 29.8839 28.9536 29.8983L29.3032 30.2361ZM22.0694 8.64663L21.6665 8.91858C21.7569 9.05249 21.9079 9.13274 22.0694 9.13274C22.231 9.13274 22.382 9.05249 22.4724 8.91858L22.0694 8.64663ZM15.3054 30.4306V30.9167C15.8657 30.9167 16.2879 30.5451 16.5801 30.1784C16.8832 29.798 17.137 29.3103 17.3467 28.8589C17.453 28.63 17.5516 28.4023 17.6414 28.1943C17.7324 27.9833 17.8126 27.7965 17.8864 27.6375C17.9623 27.4743 18.0201 27.3657 18.0626 27.3031C18.0842 27.2711 18.088 27.2723 18.072 27.286C18.0602 27.2961 17.9796 27.3636 17.8419 27.3636V26.8775V26.3914C17.6489 26.3914 17.5104 26.4867 17.4381 26.5489C17.3616 26.6147 17.3022 26.6921 17.258 26.7573C17.1687 26.889 17.0836 27.058 17.0047 27.2279C16.9238 27.402 16.8373 27.6037 16.7487 27.8092C16.6588 28.0175 16.565 28.2339 16.465 28.4492C16.262 28.8861 16.0477 29.2866 15.8198 29.5724C15.5811 29.8719 15.4094 29.9444 15.3054 29.9444V30.4306ZM17.8419 26.8775V27.3636C17.7654 27.3636 17.7083 27.3426 17.6773 27.3278C17.6464 27.313 17.6289 27.2988 17.6252 27.2957C17.6195 27.291 17.6319 27.3007 17.6623 27.3407C17.7216 27.4189 17.8008 27.5472 17.8982 27.726C18.091 28.08 18.3157 28.5578 18.5494 29.0552C18.7788 29.5433 19.0171 30.051 19.2268 30.4361C19.3307 30.6268 19.4377 30.8065 19.542 30.9439C19.5934 31.0116 19.6571 31.0866 19.7324 31.1491C19.7957 31.2017 19.9376 31.3056 20.1369 31.3056V30.8194V30.3333C20.2133 30.3333 20.2704 30.3544 20.3015 30.3692C20.3324 30.3839 20.3499 30.3982 20.3536 30.4012C20.3593 30.406 20.3469 30.3963 20.3165 30.3562C20.2572 30.2781 20.178 30.1498 20.0806 29.971C19.8877 29.617 19.663 29.1391 19.4294 28.6418C19.2 28.1537 18.9617 27.646 18.7519 27.2609C18.648 27.0702 18.541 26.8905 18.4368 26.7531C18.3854 26.6854 18.3217 26.6104 18.2464 26.5479C18.1831 26.4953 18.0412 26.3914 17.8419 26.3914V26.8775ZM20.1369 30.8194V31.3056C20.3837 31.3056 20.6202 31.188 20.7766 31.1033C20.9458 31.0117 21.1535 30.8802 21.3259 30.778C21.7181 30.5454 22.0563 30.3864 22.3513 30.3864V29.9003V29.4141C21.7605 29.4141 21.2129 29.7147 20.83 29.9417C20.6149 30.0693 20.4628 30.1676 20.3137 30.2483C20.1518 30.336 20.1115 30.3333 20.1369 30.3333V30.8194ZM22.3513 29.9003V30.3864C22.6462 30.3864 22.9844 30.5454 23.3766 30.778C23.549 30.8802 23.7567 31.0117 23.926 31.1033C24.0824 31.188 24.3189 31.3056 24.5657 31.3056V30.8194V30.3333C24.5911 30.3333 24.5508 30.336 24.3889 30.2483C24.2398 30.1676 24.0876 30.0693 23.8725 29.9417C23.4897 29.7147 22.9421 29.4141 22.3513 29.4141V29.9003ZM24.5657 30.8194V31.3056C24.7633 31.3056 24.905 31.2031 24.9676 31.1521C25.0429 31.0907 25.1075 31.0169 25.1602 30.9497C25.2669 30.8132 25.3777 30.6344 25.4861 30.4438C25.7048 30.0592 25.955 29.5519 26.196 29.0637C26.4415 28.5664 26.6778 28.0882 26.8793 27.7337C26.9811 27.5548 27.0638 27.4256 27.1258 27.3465C27.1575 27.306 27.171 27.2951 27.1666 27.2987C27.1637 27.3011 27.1469 27.3146 27.117 27.3287C27.0872 27.3427 27.0308 27.3636 26.9546 27.3636V26.8775V26.3914C26.757 26.3914 26.6153 26.4938 26.5526 26.5449C26.4773 26.6062 26.4128 26.6801 26.3601 26.7473C26.2534 26.8838 26.1426 27.0626 26.0342 27.2532C25.8155 27.6378 25.5653 28.1451 25.3243 28.6333C25.0788 29.1305 24.8425 29.6088 24.6409 29.9633C24.5392 30.1422 24.4565 30.2713 24.3945 30.3505C24.3628 30.391 24.3492 30.4019 24.3536 30.3983C24.3566 30.3958 24.3733 30.3824 24.4032 30.3683C24.4331 30.3543 24.4895 30.3333 24.5657 30.3333V30.8194ZM26.9546 26.8775V27.3636C26.8053 27.3636 26.7172 27.2858 26.6968 27.2658C26.6753 27.2447 26.6755 27.237 26.6923 27.2676C26.7247 27.3269 26.7685 27.4346 26.8238 27.6011C26.9377 27.9443 27.0445 28.3546 27.1959 28.8458C27.3373 29.3049 27.5097 29.8041 27.7283 30.1948C27.8379 30.3905 27.973 30.585 28.1431 30.7353C28.3178 30.8896 28.5499 31.0139 28.8335 31.0139V30.5278V30.0417C28.8506 30.0417 28.838 30.0519 28.7867 30.0066C28.7308 29.9572 28.6587 29.8665 28.5767 29.72C28.4124 29.4263 28.2647 29.013 28.125 28.5595C27.9952 28.1381 27.8598 27.6359 27.7465 27.2947C27.6881 27.119 27.622 26.9415 27.5453 26.8011C27.5074 26.732 27.4533 26.6458 27.3771 26.5712C27.3021 26.4978 27.1592 26.3914 26.9546 26.3914V26.8775ZM14.7417 30.1389L14.3922 30.4767C14.487 30.5749 14.6354 30.6751 14.7631 30.7461C14.8325 30.7847 14.9118 30.8236 14.9937 30.8541C15.0673 30.8816 15.1802 30.9167 15.3054 30.9167V30.4306V29.9444C15.3327 29.9444 15.3485 29.9483 15.3486 29.9483C15.35 29.9486 15.3451 29.9475 15.3334 29.9432C15.3094 29.9342 15.2753 29.9185 15.2354 29.8963C15.1963 29.8746 15.159 29.8508 15.1289 29.8294C15.0948 29.8051 15.085 29.7946 15.0913 29.8011L14.7417 30.1389ZM28.8335 30.5278V31.0139C28.9219 31.0139 28.9942 30.992 29.0293 30.9802C29.0717 30.966 29.1106 30.9488 29.1424 30.9334C29.2064 30.9025 29.2712 30.8643 29.3284 30.8276C29.4347 30.7594 29.5671 30.6626 29.6528 30.5739L29.3032 30.2361L28.9536 29.8983C28.9544 29.8975 28.9404 29.9111 28.9067 29.937C28.8762 29.9603 28.8398 29.986 28.8035 30.0092C28.766 30.0333 28.7365 30.0498 28.7189 30.0583C28.7099 30.0627 28.7111 30.0615 28.7206 30.0583C28.7257 30.0566 28.7369 30.053 28.753 30.0497C28.7679 30.0466 28.7962 30.0417 28.8335 30.0417V30.5278ZM14.5444 4.56944V4.08333C9.17726 4.08333 4.86111 8.61685 4.86111 14.1653H5.34722H5.83333C5.83333 9.1145 9.75266 5.05556 14.5444 5.05556V4.56944ZM38.7917 14.1653H39.2778C39.2778 8.61685 34.9616 4.08333 29.5944 4.08333V4.56944V5.05556C34.3862 5.05556 38.3056 9.11451 38.3056 14.1653H38.7917ZM29.5944 4.56944V4.08333C26.31 4.08333 23.4142 5.78528 21.6665 8.37468L22.0694 8.64663L22.4724 8.91858C24.0536 6.57589 26.6577 5.05556 29.5944 5.05556V4.56944ZM22.0694 8.64663L22.4724 8.37468C20.7247 5.78528 17.8289 4.08333 14.5444 4.08333V4.56944V5.05556C17.4812 5.05556 20.0853 6.57589 21.6665 8.91858L22.0694 8.64663ZM29.3032 30.2361L29.6084 30.6145C34.4798 26.6849 39.2778 20.6445 39.2778 14.1653H38.7917H38.3056C38.3056 20.1943 33.799 25.9849 28.998 29.8578L29.3032 30.2361ZM5.34722 14.1653H4.86111C4.86111 20.609 9.59375 26.5866 14.4354 30.5163L14.7417 30.1389L15.0481 29.7615C10.2763 25.8884 5.83333 20.1603 5.83333 14.1653H5.34722Z" fill="var(--stroke-0, white)"/>
</g>
<g id="Frame 104">
<g id="Ellipse 9" filter="url(#filter1_d_341_529)">
<path d="M20.3195 33.25C20.3195 33.9481 19.7536 34.5139 19.0556 34.5139C18.3575 34.5139 17.7917 33.9481 17.7917 33.25C17.7917 32.552 18.3575 31.9862 19.0556 31.9862C19.7536 31.9862 20.3195 32.552 20.3195 33.25Z" fill="var(--fill-0, white)"/>
</g>
<g id="Ellipse 10" filter="url(#filter2_d_341_529)">
<ellipse cx="25.4722" cy="33.25" rx="1.26389" ry="1.26389" fill="var(--fill-0, white)"/>
</g>
</g>
</g>
<defs>
<filter id="filter0_d_341_529" x="5.96046e-08" y="1.19209e-07" width="44.1389" height="36.9444" filterUnits="userSpaceOnUse" color-interpolation-filters="sRGB">
<feFlood flood-opacity="0" result="BackgroundImageFix"/>
<feColorMatrix in="SourceAlpha" type="matrix" values="0 0 0 0 0 0 0 0 0 0 0 0 0 0 0 0 0 0 127 0" result="hardAlpha"/>
<feOffset dy="0.777778"/>
<feGaussianBlur stdDeviation="2.43056"/>
<feComposite in2="hardAlpha" operator="out"/>
<feColorMatrix type="matrix" values="0 0 0 0 0 0 0 0 0 0 0 0 0 0 0 0 0 0 0.2 0"/>
<feBlend mode="normal" in2="BackgroundImageFix" result="effect1_dropShadow_341_529"/>
<feBlend mode="normal" in="SourceGraphic" in2="effect1_dropShadow_341_529" result="shape"/>
</filter>
<filter id="filter1_d_341_529" x="15.8472" y="30.8195" width="6.41667" height="6.41667" filterUnits="userSpaceOnUse" color-interpolation-filters="sRGB">
<feFlood flood-opacity="0" result="BackgroundImageFix"/>
<feColorMatrix in="SourceAlpha" type="matrix" values="0 0 0 0 0 0 0 0 0 0 0 0 0 0 0 0 0 0 127 0" result="hardAlpha"/>
<feOffset dy="0.777778"/>
<feGaussianBlur stdDeviation="0.972222"/>
<feComposite in2="hardAlpha" operator="out"/>
<feColorMatrix type="matrix" values="0 0 0 0 0 0 0 0 0 0 0 0 0 0 0 0 0 0 0.15 0"/>
<feBlend mode="normal" in2="BackgroundImageFix" result="effect1_dropShadow_341_529"/>
<feBlend mode="normal" in="SourceGraphic" in2="effect1_dropShadow_341_529" result="shape"/>
</filter>
<filter id="filter2_d_341_529" x="22.2639" y="30.8194" width="6.41667" height="6.41667" filterUnits="userSpaceOnUse" color-interpolation-filters="sRGB">
<feFlood flood-opacity="0" result="BackgroundImageFix"/>
<feColorMatrix in="SourceAlpha" type="matrix" values="0 0 0 0 0 0 0 0 0 0 0 0 0 0 0 0 0 0 127 0" result="hardAlpha"/>
<feOffset dy="0.777778"/>
<feGaussianBlur stdDeviation="0.972222"/>
<feComposite in2="hardAlpha" operator="out"/>
<feColorMatrix type="matrix" values="0 0 0 0 0 0 0 0 0 0 0 0 0 0 0 0 0 0 0.15 0"/>
<feBlend mode="normal" in2="BackgroundImageFix" result="effect1_dropShadow_341_529"/>
<feBlend mode="normal" in="SourceGraphic" in2="effect1_dropShadow_341_529" result="shape"/>
</filter>
</defs>
</svg>
