<svg preserveAspectRatio="none" width="100%" height="100%" overflow="visible" style="display: block;" viewBox="0 0 65 57" fill="none" xmlns="http://www.w3.org/2000/svg">
<path id="Subtract" fill-rule="evenodd" clip-rule="evenodd" d="M0 32.5C0 14.5507 14.5507 0 32.5 0C50.4493 0 65 14.5507 65 32.5C65 40.2944 61.8993 47.3322 57.6568 53.0394C56.685 54.2073 54.784 56.1528 52.9028 56.1528C51.2683 56.1528 49.431 51.6134 47.9907 48.055C47.0623 45.7612 46.2989 43.875 45.8611 43.875C45.3026 43.875 43.6337 45.9514 41.9647 48.0278C40.2957 50.1042 38.6268 52.1806 38.0683 52.1806C37.6056 52.1806 36.9514 51.8032 36.1848 51.3611C35.1007 50.7358 33.7922 49.9811 32.4836 49.9811C31.175 49.9811 29.8664 50.7358 28.7824 51.3611C28.0158 51.8032 27.3615 52.1806 26.8989 52.1806C26.3404 52.1806 24.9505 50.1042 23.5605 48.0278C22.1706 45.9514 20.7807 43.875 20.2222 43.875C19.8134 43.875 19.1368 45.5199 18.2789 47.6056C16.793 51.218 14.7632 56.1528 12.6389 56.1528C9.96158 56.1528 7.64354 53.1558 6.81985 51.9511C2.73197 46.5277 0 39.7945 0 32.5ZM25.2778 20.4839V29.1717V37.8596C25.2778 39.2771 26.8365 40.1418 28.0392 39.3914L34.8472 35.1431L41.9619 30.7035C43.0948 29.9965 43.0948 28.3469 41.9619 27.6399L34.8472 23.2003L28.0392 18.9521C26.8365 18.2016 25.2778 19.0663 25.2778 20.4839Z" fill="var(--fill-0, white)"/>
</svg>
