<svg preserveAspectRatio="none" width="100%" height="100%" overflow="visible" style="display: block;" viewBox="0 0 17 15" fill="none" xmlns="http://www.w3.org/2000/svg">
<path id="Vector" d="M13.7629 12.958C13.5373 13.1666 13.5235 13.5185 13.7321 13.7441C13.9407 13.9696 14.2926 13.9834 14.5181 13.7748L14.1405 13.3664L13.7629 12.958ZM16.1323 8.30978H16.6886C16.6886 3.71811 12.9504 0 8.34428 0V0.55624V1.11248C12.3406 1.11248 15.5761 4.33717 15.5761 8.30978H16.1323ZM8.34428 0.55624V0C3.73821 0 0 3.71811 0 8.30978H0.55624H1.11248C1.11248 4.33717 4.34796 1.11248 8.34428 1.11248V0.55624ZM14.1405 13.3664L14.5181 13.7748C15.3338 13.0206 15.8877 12.2485 16.2306 11.3465C16.5705 10.452 16.6886 9.46674 16.6886 8.30978H16.1323H15.5761C15.5761 9.39742 15.4638 10.2326 15.1907 10.9513C14.9204 11.6624 14.4784 12.2964 13.7629 12.958L14.1405 13.3664ZM0.55624 8.30978H0C0 10.7163 1.02788 12.884 2.66784 14.4005L3.04548 13.9921L3.42312 13.5837C2.0007 12.2684 1.11248 10.3925 1.11248 8.30978H0.55624Z" fill="var(--stroke-0, black)"/>
</svg>
