<svg preserveAspectRatio="none" width="100%" height="100%" overflow="visible" style="display: block;" viewBox="0 0 15 7" fill="none" xmlns="http://www.w3.org/2000/svg">
<path id="Vector 1" d="M0.411096 1.38855C0.411096 1.38855 1.54828 2.63701 2.25407 2.63701C2.95986 2.63701 2.93525 0.55624 3.33768 0.55624C3.7401 0.55624 4.51399 2.69065 4.74925 2.69065C4.98452 2.69065 5.45504 2.24366 5.92557 2.24366C6.39609 2.24366 6.86662 2.69065 7.10188 2.69065C7.33715 2.69065 8.17604 0.55624 8.51346 0.55624C8.85088 0.55624 8.80514 1.5264 9.43594 2.1375C9.67315 2.3673 10.3394 2.33976 10.3394 2.33976C10.3394 2.33976 11.1485 2.31441 11.5878 2.75592C12.1109 3.28149 12.004 4.12328 12.3607 4.47999C12.8957 5.01504 14.3507 6.41086 14.4415 6.50131" stroke="var(--stroke-0, black)" stroke-width="1.11248"/>
</svg>
