<svg preserveAspectRatio="none" width="100%" height="100%" overflow="visible" style="display: block;" viewBox="0 0 39 45" fill="none" xmlns="http://www.w3.org/2000/svg">
<g id="Frame 17">
<path id="Vector" d="M31.0166 29.4878C30.769 29.7188 30.7555 30.1068 30.9865 30.3544C31.2175 30.602 31.6055 30.6155 31.8531 30.3845L31.4349 29.9361L31.0166 29.4878ZM35.9542 18.3613H36.5673C36.5673 8.2232 28.3839 0 18.2837 0V0.613134V1.22627C27.7016 1.22627 35.341 8.89538 35.341 18.3613H35.9542ZM18.2837 0.613134V0C8.18338 0 0 8.2232 0 18.3613H0.613134H1.22627C1.22627 8.89538 8.86569 1.22627 18.2837 1.22627V0.613134ZM31.4349 29.9361L31.8531 30.3845C33.6452 28.7127 34.8361 27.0272 35.5711 25.0762C36.3029 23.1336 36.5673 20.9681 36.5673 18.3613H35.9542H35.341C35.341 20.8924 35.0829 22.8938 34.4236 24.6439C33.7674 26.3856 32.6987 27.9186 31.0166 29.4878L31.4349 29.9361ZM0.613134 18.3613H0C0 23.6758 2.24919 28.4642 5.8428 31.8166L6.26105 31.3683L6.67929 30.92C3.32456 27.7904 1.22627 23.3227 1.22627 18.3613H0.613134Z" fill="var(--stroke-0, #6FBDD3)"/>
<path id="Vector 1" d="M37.0031 42.9357C37.2419 43.1759 37.6301 43.177 37.8702 42.9382C38.1104 42.6995 38.1115 42.3113 37.8728 42.0712L37.4379 42.5034L37.0031 42.9357ZM26.0808 32.5145L25.6522 32.953L26.0808 32.5145ZM28.1306 32.9775L28.1112 32.3646L28.105 32.3649L28.1306 32.9775ZM30.9633 33.9301L31.3998 33.4995L31.3998 33.4995L30.9633 33.9301ZM32.7168 37.8765L32.2814 38.3082L32.2814 38.3082L32.7168 37.8765ZM5.60403 30.6972C5.1418 31.1001 5.14187 31.1001 5.14195 31.1002C5.14199 31.1003 5.14208 31.1004 5.14216 31.1005C5.14232 31.1006 5.14252 31.1009 5.14276 31.1012C5.14323 31.1017 5.14387 31.1024 5.14466 31.1033C5.14623 31.1051 5.14843 31.1076 5.15124 31.1108C5.15686 31.1172 5.16491 31.1263 5.17528 31.138C5.19602 31.1613 5.22608 31.1948 5.26458 31.2371C5.34153 31.3217 5.45243 31.4415 5.59026 31.5848C5.86522 31.8707 6.25076 32.2539 6.69036 32.6388C7.12758 33.0217 7.63168 33.4183 8.14343 33.7224C8.63951 34.0172 9.21774 34.2711 9.78561 34.2711V33.6579V33.0448C9.55278 33.0448 9.20797 32.9286 8.76987 32.6682C8.34745 32.4172 7.90624 32.0736 7.49824 31.7163C7.09262 31.3611 6.73303 31.004 6.47416 30.7348C6.34507 30.6006 6.24188 30.4891 6.17148 30.4117C6.1363 30.3731 6.10936 30.343 6.09152 30.323C6.08261 30.3129 6.07597 30.3054 6.07172 30.3006C6.0696 30.2982 6.06808 30.2965 6.06716 30.2954C6.06671 30.2949 6.0664 30.2945 6.06625 30.2944C6.06618 30.2943 6.06614 30.2942 6.06614 30.2943C6.06614 30.2943 6.06618 30.2943 6.06618 30.2943C6.06622 30.2943 6.06627 30.2944 5.60403 30.6972ZM9.78561 33.6579V34.2711C10.5457 34.2711 10.9997 33.6946 11.2599 33.1985C11.5317 32.6805 11.7177 32.0203 11.8676 31.4264C12.0263 30.7968 12.1432 30.2505 12.282 29.8323C12.3511 29.624 12.4087 29.5036 12.4484 29.4455C12.494 29.3787 12.4322 29.5081 12.2442 29.5081V28.895V28.2818C11.828 28.2818 11.5682 28.5601 11.4359 28.7537C11.2976 28.9561 11.1972 29.2078 11.1181 29.446C10.9605 29.9209 10.8201 30.5653 10.6785 31.1265C10.528 31.7233 10.3707 32.2539 10.174 32.6289C9.96573 33.0259 9.82619 33.0448 9.78561 33.0448V33.6579ZM12.2442 28.895V29.5081C12.1029 29.5081 12.078 29.4302 12.1931 29.543C12.2838 29.6318 12.4014 29.7808 12.5426 29.9953C12.8227 30.4211 13.1305 31.0032 13.4411 31.6153C13.7437 32.2115 14.0523 32.8435 14.3135 33.3146C14.4437 33.5494 14.5765 33.7711 14.7043 33.9403C14.7672 34.0235 14.8454 34.1166 14.9377 34.1944C15.0133 34.2582 15.1925 34.3938 15.447 34.3938V33.7807V33.1676C15.5474 33.1676 15.6219 33.196 15.6616 33.2153C15.7013 33.2346 15.7238 33.2533 15.7285 33.2572C15.736 33.2635 15.7209 33.2516 15.6829 33.2013C15.6089 33.1033 15.5098 32.9432 15.386 32.72C15.1393 32.275 14.8519 31.6856 14.5346 31.0604C14.2254 30.451 13.8896 29.8117 13.567 29.3213C13.4068 29.0779 13.2333 28.8452 13.0511 28.6668C12.8933 28.5123 12.6138 28.2818 12.2442 28.2818V28.895ZM15.447 33.7807V34.3938C15.7396 34.3938 16.0226 34.2646 16.2133 34.1692C16.4175 34.0671 16.6686 33.9203 16.8758 33.8069C17.3458 33.5495 17.7553 33.3706 18.116 33.3706V32.7575V32.1444C17.4091 32.1444 16.7509 32.4771 16.2868 32.7313C16.0269 32.8737 15.8443 32.9827 15.6649 33.0724C15.4719 33.1689 15.4213 33.1676 15.447 33.1676V33.7807ZM18.116 32.7575V33.3706C18.4767 33.3706 18.8861 33.5495 19.3561 33.8069C19.5633 33.9203 19.8144 34.0671 20.0186 34.1692C20.2093 34.2646 20.4924 34.3938 20.785 34.3938V33.7807V33.1676C20.8106 33.1676 20.76 33.1689 20.5671 33.0724C20.3876 32.9827 20.205 32.8737 19.9452 32.7313C19.481 32.4771 18.8229 32.1444 18.116 32.1444V32.7575ZM20.785 33.7807V34.3938C21.0368 34.3938 21.2155 34.2606 21.2903 34.1991C21.3827 34.123 21.4623 34.0316 21.5271 33.9488C21.6588 33.7807 21.7971 33.5599 21.9334 33.3248C22.2077 32.8515 22.5291 32.2222 22.8428 31.6218C23.1635 31.0082 23.4778 30.4213 23.7551 29.9899C23.8951 29.7722 24.0102 29.6187 24.0976 29.5262C24.1413 29.48 24.1625 29.4659 24.1611 29.4668C24.1591 29.4681 24.1444 29.4774 24.1176 29.4868C24.0903 29.4965 24.0457 29.5081 23.9877 29.5081V28.895V28.2818C23.7793 28.2818 23.6116 28.3629 23.5018 28.4328C23.3882 28.5053 23.2894 28.5962 23.2067 28.6836C23.0415 28.8583 22.8781 29.0864 22.7236 29.3268C22.4121 29.8115 22.0736 30.446 21.756 31.0539C21.4315 31.6749 21.1291 32.267 20.8724 32.7098C20.7433 32.9327 20.6393 33.0937 20.5617 33.1927C20.5219 33.2435 20.5051 33.2571 20.5107 33.2525C20.5144 33.2495 20.5357 33.2321 20.5738 33.2138C20.6117 33.1957 20.6852 33.1676 20.785 33.1676V33.7807ZM23.9877 28.895V29.5081C23.8123 29.5081 23.7934 29.3572 23.8931 29.5479C23.9854 29.7245 24.0702 29.9845 24.2042 30.3779C24.4524 31.1064 24.8215 32.1411 25.6522 32.953L26.0808 32.5145L26.5093 32.076C25.9088 31.4891 25.6142 30.714 25.365 29.9825C25.2503 29.6458 25.1281 29.2632 24.9798 28.9797C24.839 28.7103 24.546 28.2818 23.9877 28.2818V28.895ZM26.0808 32.5145L25.6522 32.953C25.8857 33.1812 26.1857 33.3127 26.4449 33.3939C26.7128 33.4777 26.994 33.525 27.2391 33.5526C27.4866 33.5804 27.7129 33.5897 27.8765 33.5922C27.9589 33.5935 28.0266 33.593 28.0746 33.5922C28.0987 33.5918 28.1179 33.5913 28.1317 33.5909C28.1386 33.5907 28.1441 33.5905 28.1482 33.5904C28.1503 33.5903 28.1519 33.5903 28.1533 33.5902C28.1539 33.5902 28.1545 33.5902 28.155 33.5901C28.1552 33.5901 28.1554 33.5901 28.1556 33.5901C28.1557 33.5901 28.1558 33.5901 28.1559 33.5901C28.156 33.5901 28.1561 33.5901 28.1306 32.9775C28.105 32.3649 28.1051 32.3649 28.1052 32.3649C28.1053 32.3649 28.1053 32.3649 28.1054 32.3649C28.1055 32.3649 28.1056 32.3649 28.1056 32.3649C28.1057 32.3649 28.1058 32.3649 28.1057 32.3649C28.1056 32.3649 28.1051 32.3649 28.1042 32.3649C28.1026 32.365 28.0996 32.3651 28.0952 32.3652C28.0866 32.3655 28.0728 32.3658 28.0545 32.3661C28.0178 32.3667 27.9632 32.3671 27.8954 32.3661C27.7588 32.364 27.5736 32.3562 27.3759 32.334C27.1758 32.3115 26.9782 32.2759 26.8113 32.2236C26.6357 32.1687 26.5449 32.1108 26.5093 32.076L26.0808 32.5145ZM28.1306 32.9775C28.1499 33.5903 28.1498 33.5903 28.1496 33.5903C28.1496 33.5903 28.1494 33.5903 28.1493 33.5903C28.1492 33.5903 28.149 33.5904 28.1489 33.5904C28.1487 33.5904 28.1486 33.5904 28.1485 33.5904C28.1485 33.5904 28.1489 33.5904 28.1497 33.5903C28.1513 33.5903 28.1546 33.5902 28.1594 33.5902C28.1691 33.59 28.1852 33.5899 28.2069 33.5901C28.2503 33.5904 28.3161 33.5918 28.3992 33.5964C28.5663 33.6056 28.7988 33.6274 29.0577 33.677C29.5933 33.7796 30.1566 33.9854 30.5267 34.3607L30.9633 33.9301L31.3998 33.4995C30.7731 32.8642 29.92 32.5936 29.2885 32.4726C28.9638 32.4104 28.675 32.3835 28.4668 32.372C28.3622 32.3662 28.2768 32.3643 28.216 32.3639C28.1855 32.3636 28.1611 32.3638 28.1435 32.364C28.1346 32.3641 28.1275 32.3643 28.1221 32.3644C28.1194 32.3644 28.1171 32.3645 28.1153 32.3645C28.1144 32.3646 28.1136 32.3646 28.1129 32.3646C28.1126 32.3646 28.1123 32.3646 28.112 32.3646C28.1118 32.3646 28.1116 32.3647 28.1116 32.3647C28.1114 32.3647 28.1112 32.3647 28.1306 32.9775ZM30.9633 33.9301L30.5267 34.3607C30.9932 34.8335 31.1988 35.4667 31.3878 36.201C31.4766 36.5465 31.5686 36.9405 31.6893 37.2866C31.8117 37.6373 31.9857 38.0099 32.2814 38.3082L32.7168 37.8765L33.1523 37.4449C33.0433 37.3349 32.9441 37.1605 32.8472 36.8827C32.7487 36.6002 32.6753 36.2842 32.5753 35.8955C32.3865 35.1615 32.1201 34.2297 31.3998 33.4995L30.9633 33.9301ZM32.7168 37.8765L32.2814 38.3082C32.8928 38.925 34.0256 40.0338 35.0274 41.0106C36.036 41.994 36.9047 42.8367 37.0031 42.9357L37.4379 42.5034L37.8728 42.0712C37.7654 41.9631 36.8805 41.1048 35.8835 40.1326C34.8797 39.1539 33.7549 38.0528 33.1523 37.4449L32.7168 37.8765Z" fill="var(--stroke-0, #6FBDD3)"/>
<g id="Ellipse 9" filter="url(#filter0_d_342_707)">
<path d="M15.9006 38.0655C15.9006 39.1086 15.1155 39.9543 14.147 39.9543C13.1786 39.9543 12.3935 39.1086 12.3935 38.0655C12.3935 37.0223 13.1786 36.1766 14.147 36.1766C15.1155 36.1766 15.9006 37.0223 15.9006 38.0655Z" fill="var(--fill-0, #6FBDD3)"/>
<path d="M14.1474 36.2997C15.0395 36.2999 15.7782 37.0813 15.7782 38.0653C15.7782 39.0494 15.0395 39.8317 14.1474 39.8319C13.2551 39.8319 12.5165 39.0495 12.5165 38.0653C12.5166 37.0812 13.2551 36.2997 14.1474 36.2997Z" stroke="var(--stroke-0, #6FBDD3)" stroke-width="0.245254"/>
</g>
<g id="Ellipse 10" filter="url(#filter1_d_342_707)">
<ellipse cx="21.7008" cy="38.0655" rx="1.75356" ry="1.88884" fill="var(--fill-0, #6FBDD3)"/>
<path d="M21.7012 36.2997C22.5933 36.2999 23.332 37.0813 23.3321 38.0653C23.3321 39.0494 22.5934 39.8317 21.7012 39.8319C20.8089 39.8319 20.0703 39.0495 20.0703 38.0653C20.0704 37.0812 20.8089 36.2997 21.7012 36.2997Z" stroke="var(--stroke-0, #6FBDD3)" stroke-width="0.245254"/>
</g>
<path id="Vector_2" d="M8.82047 7.86245C12.2337 4.99608 16.2522 3.56399 20.3194 4.14566C24.3868 4.72736 27.8428 7.22842 30.3158 10.9366" stroke="var(--stroke-0, #6FBDD3)" stroke-width="1.22627" stroke-linecap="round" stroke-linejoin="round"/>
</g>
<defs>
<filter id="filter0_d_342_707" x="9.94094" y="34.7051" width="8.4122" height="8.68276" filterUnits="userSpaceOnUse" color-interpolation-filters="sRGB">
<feFlood flood-opacity="0" result="BackgroundImageFix"/>
<feColorMatrix in="SourceAlpha" type="matrix" values="0 0 0 0 0 0 0 0 0 0 0 0 0 0 0 0 0 0 127 0" result="hardAlpha"/>
<feOffset dy="0.981014"/>
<feGaussianBlur stdDeviation="1.22627"/>
<feComposite in2="hardAlpha" operator="out"/>
<feColorMatrix type="matrix" values="0 0 0 0 0 0 0 0 0 0 0 0 0 0 0 0 0 0 0.15 0"/>
<feBlend mode="normal" in2="BackgroundImageFix" result="effect1_dropShadow_342_707"/>
<feBlend mode="normal" in="SourceGraphic" in2="effect1_dropShadow_342_707" result="shape"/>
</filter>
<filter id="filter1_d_342_707" x="17.4948" y="34.7051" width="8.4122" height="8.68276" filterUnits="userSpaceOnUse" color-interpolation-filters="sRGB">
<feFlood flood-opacity="0" result="BackgroundImageFix"/>
<feColorMatrix in="SourceAlpha" type="matrix" values="0 0 0 0 0 0 0 0 0 0 0 0 0 0 0 0 0 0 127 0" result="hardAlpha"/>
<feOffset dy="0.981014"/>
<feGaussianBlur stdDeviation="1.22627"/>
<feComposite in2="hardAlpha" operator="out"/>
<feColorMatrix type="matrix" values="0 0 0 0 0 0 0 0 0 0 0 0 0 0 0 0 0 0 0.15 0"/>
<feBlend mode="normal" in2="BackgroundImageFix" result="effect1_dropShadow_342_707"/>
<feBlend mode="normal" in="SourceGraphic" in2="effect1_dropShadow_342_707" result="shape"/>
</filter>
</defs>
</svg>
