<svg preserveAspectRatio="none" width="100%" height="100%" overflow="visible" style="display: block;" viewBox="0 0 31 35" fill="none" xmlns="http://www.w3.org/2000/svg">
<g id="Vector 4" filter="url(#filter0_d_341_546)">
<path d="M11.243 4.22121C11.243 4.22121 12.1665 9.6943 9.07771 9.6943C5.98895 9.6943 4.7827 11.5147 4.95573 13.9901C5.24403 18.1145 7.80606 19.1805 8.57609 18.1443C9.34613 17.1081 10.8067 13.8151 12.7004 14.2745C14.5941 14.7339 12.581 18.5597 14.5941 19.6954C15.469 20.189 16.5704 19.5194 17.4964 19.9191C18.6194 20.4039 18.7321 21.928 19.9088 22.2779C22.2268 22.967 24.8118 18.4656 25.4111 20.181C25.815 21.3373 25.569 24.4341 25.1415 25.9841C24.8638 26.9907 23.9585 28.8307 23.5747 29.2721" stroke="var(--stroke-0, white)" stroke-opacity="0.2" stroke-width="0.898114" stroke-linecap="round" shape-rendering="crispEdges"/>
</g>
<defs>
<filter id="filter0_d_341_546" x="2.08616e-07" y="-2.98023e-07" width="30.5561" height="34.9302" filterUnits="userSpaceOnUse" color-interpolation-filters="sRGB">
<feFlood flood-opacity="0" result="BackgroundImageFix"/>
<feColorMatrix in="SourceAlpha" type="matrix" values="0 0 0 0 0 0 0 0 0 0 0 0 0 0 0 0 0 0 127 0" result="hardAlpha"/>
<feOffset dy="0.718491"/>
<feGaussianBlur stdDeviation="2.24529"/>
<feComposite in2="hardAlpha" operator="out"/>
<feColorMatrix type="matrix" values="0 0 0 0 0 0 0 0 0 0 0 0 0 0 0 0 0 0 0.2 0"/>
<feBlend mode="normal" in2="BackgroundImageFix" result="effect1_dropShadow_341_546"/>
<feBlend mode="normal" in="SourceGraphic" in2="effect1_dropShadow_341_546" result="shape"/>
</filter>
</defs>
</svg>
