<svg preserveAspectRatio="none" width="100%" height="100%" overflow="visible" style="display: block;" viewBox="0 0 26 23" fill="none" xmlns="http://www.w3.org/2000/svg">
<path id="Subtract" fill-rule="evenodd" clip-rule="evenodd" d="M0 13C0 5.8203 5.8203 0 13 0C20.1797 0 26 5.8203 26 13C26 16.1178 24.7597 18.9329 23.0627 21.2158C22.674 21.6829 21.9136 22.4611 21.1611 22.4611C20.5073 22.4611 19.7724 20.6454 19.1963 19.222C18.8249 18.3045 18.5196 17.55 18.3444 17.55C18.1211 17.55 17.4535 18.3806 16.7859 19.2111C16.1183 20.0417 15.4507 20.8722 15.2273 20.8722C15.0423 20.8722 14.7805 20.7213 14.4739 20.5444C14.0403 20.2943 13.5169 19.9924 12.9934 19.9924C12.47 19.9924 11.9466 20.2943 11.5129 20.5444C11.2063 20.7213 10.9446 20.8722 10.7595 20.8722C10.5362 20.8722 9.98019 20.0417 9.42422 19.2111C8.86825 18.3806 8.31228 17.55 8.08889 17.55C7.92536 17.55 7.65472 18.208 7.31157 19.0422C6.7172 20.4872 5.90529 22.4611 5.05556 22.4611C3.98463 22.4611 3.05742 21.2623 2.72794 20.7804C1.09279 18.6111 0 15.9178 0 13ZM10.1111 8.19355V11.6687V15.1438C10.1111 15.7109 10.7346 16.0567 11.2157 15.7565L13.9389 14.0572L16.7848 12.2814C17.2379 11.9986 17.2379 11.3388 16.7848 11.056L13.9389 9.28013L11.2157 7.58083C10.7346 7.28065 10.1111 7.62652 10.1111 8.19355Z" fill="var(--fill-0, white)"/>
</svg>
